<svg xmlns="http://www.w3.org/2000/svg" xmlns:xlink="http://www.w3.org/1999/xlink" viewBox="0 0 184.26 34.61">
	<defs>
		<style>.data-1{isolation:isolate;}.data-2{fill:#d4d4d4;}.data-3{fill:#b22b25;}.data-4{mix-blend-mode:multiply;}.data-5{fill:#c9c9c9;}.data-6{fill:url(#linear-gradient);}.data-7{fill:#acaeb0;}</style>
		<linearGradient id="linear-gradient" x1="9.87" y1="18.52" x2="19.2" y2="12.53" gradientUnits="userSpaceOnUse">
			<stop offset="0" stop-color="#b22b25"></stop>
			<stop offset="1" stop-color="#ec7e23"></stop>
		</linearGradient>
	</defs>
	<g class="data-1">
		<path class="data-2" d="M99.07,2.08h2.07L90.24,34.61H88.17Z"></path>
		<path class="data-2" d="M121.24,27.14a9.46,9.46,0,0,1-7.73,4.1c-5.88,0-9.93-4.51-9.93-11.64s4-11.69,9.93-11.69a9.42,9.42,0,0,1,7.73,4.14V0h2.44V30.69h-2.44Zm0-13a8.86,8.86,0,0,0-7.31-4c-4.92,0-7.78,4.14-7.78,9.52s2.86,9.48,7.78,9.48a8.9,8.9,0,0,0,7.31-4Z"></path>
		<path class="data-2" d="M145.26,28.06a9.67,9.67,0,0,1-7.55,3.18c-3.82,0-7.77-2.62-7.77-7.41s3.91-7.36,7.77-7.36a9.64,9.64,0,0,1,7.55,3.17v-4.5c0-3.32-2.67-5.11-6-5.11a8.63,8.63,0,0,0-6.94,3.27L131,11.64a10.81,10.81,0,0,1,8.56-3.73c4.51,0,8.1,2.17,8.1,7.13V30.69h-2.39Zm0-6.62a8.34,8.34,0,0,0-6.72-3.08c-3.68,0-6.07,2.34-6.07,5.52s2.39,5.47,6.07,5.47a8.3,8.3,0,0,0,6.72-3Z"></path>
		<path class="data-2" d="M155.56,26.41V10.58h-3.68V8.46h3.68V2.39H158V8.46h4.5v2.12H158V26c0,1.79.73,3,2.3,3A3.49,3.49,0,0,0,162.78,28l.92,1.84a5,5,0,0,1-3.77,1.38C157,31.24,155.56,29.44,155.56,26.41Z"></path>
		<path class="data-2" d="M181.87,28.06a9.65,9.65,0,0,1-7.54,3.18c-3.82,0-7.78-2.62-7.78-7.41s3.91-7.36,7.78-7.36a9.6,9.6,0,0,1,7.54,3.17v-4.5c0-3.32-2.67-5.11-6-5.11a8.66,8.66,0,0,0-6.95,3.27l-1.33-1.66a10.81,10.81,0,0,1,8.56-3.73c4.5,0,8.09,2.17,8.09,7.13V30.69h-2.39Zm0-6.62a8.32,8.32,0,0,0-6.72-3.08c-3.68,0-6.07,2.34-6.07,5.52s2.39,5.47,6.07,5.47a8.29,8.29,0,0,0,6.72-3Z"></path>
		<path class="data-3" d="M8.16,25c1.11,3.73,3.87,4.75,6.56,2.08,4.46-4.44,4.83-21.9-3.78-19.22C5.7,9.46,2.54,16.65,3.56,21.46h0c.26,1.2-3.11.5-3.35-.63-1.48-7,5-16.53,12.93-15.53,9.57,1.21,10.3,17.17,4.9,23C13.87,32.73,8.63,31,6,26.92A2.05,2.05,0,0,1,8.16,25Z"></path>
		<path class="data-3" d="M20,30.35H19.9v-.78h-.25v-.1h.61v.1H20Zm1.14-.73-.3.73h0l-.3-.73v.73H20.4v-.88h.18l.25.64.26-.64h.17v.88h-.11Z"></path>
		<g class="data-4">
			<path class="data-5" d="M7.33,23.85a8.36,8.36,0,0,1,3.41-6.72c4.54-3.42,11.16-5,16.59-6,1.75-.31-.74-2.12-1.72-2-5.35,1-15,2.66-19.22,7.89C5.53,18.13,7.19,28.6,7.33,23.85Z"></path>
		</g>
		<path class="data-6" d="M8.16,25a8.29,8.29,0,0,1,3.05-9.49c4.85-3.71,12.06-5.65,18-6.88,1.91-.4-.89-2.15-2-1.92C19.71,8.25,4.42,11.42,4.38,21.24A10.47,10.47,0,0,0,6,26.92"></path>
		<path class="data-7" d="M26.91,19.46c0-2.4,1.54-4.3,3.94-4.3s4,1.9,4,4.3-1.53,4.32-4,4.32S26.91,21.86,26.91,19.46Zm7,0c0-1.82-1.07-3.5-3-3.5s-3,1.68-3,3.5S29,23,30.85,23,33.86,21.29,33.86,19.46Z"></path>
		<path class="data-7" d="M42.73,18c0-1.58-.8-2.05-2-2.05a3.51,3.51,0,0,0-2.67,1.41v6.2h-.89V15.36h.89V16.6a4.17,4.17,0,0,1,3-1.44c1.66,0,2.58.81,2.58,2.67v5.74h-.88Z"></path>
		<path class="data-7" d="M49.91,15.16c2.5,0,3.88,2,3.88,4.35v.24H46.92A3.21,3.21,0,0,0,50.13,23a3.61,3.61,0,0,0,2.69-1.14l.46.58a4.24,4.24,0,0,1-3.21,1.33A4.06,4.06,0,0,1,46,19.46,4.08,4.08,0,0,1,49.91,15.16Zm-3,3.89h6a3,3,0,0,0-3-3.13A3.1,3.1,0,0,0,46.92,19.05Z"></path>
		<path class="data-7" d="M61.67,18c0-1.58-.8-2-2-2A3.49,3.49,0,0,0,57,17.37v6.2h-.89V12.23H57V16.6A4.14,4.14,0,0,1,60,15.16c1.67,0,2.59.78,2.59,2.63v5.78h-.89Z"></path>
		<path class="data-7" d="M70.55,22.6a3.58,3.58,0,0,1-2.79,1.18A2.75,2.75,0,0,1,64.89,21a2.71,2.71,0,0,1,2.87-2.72,3.54,3.54,0,0,1,2.79,1.17V17.83a2,2,0,0,0-2.21-1.89,3.21,3.21,0,0,0-2.57,1.21l-.49-.61a4,4,0,0,1,3.16-1.38c1.67,0,3,.8,3,2.63v5.78h-.88Zm0-2.44A3.09,3.09,0,0,0,68.07,19a2,2,0,1,0,0,4.06A3.07,3.07,0,0,0,70.55,22Z"></path>
		<path class="data-7" d="M74.41,22V16.14H73.05v-.78h1.36V13.12h.9v2.24H77v.78H75.31v5.72c0,.66.27,1.12.85,1.12a1.31,1.31,0,0,0,.92-.39l.34.68a1.88,1.88,0,0,1-1.4.51C74.94,23.78,74.41,23.11,74.41,22Z"></path>

	</g>
</svg>